<mxfile host="app.diagrams.net" modified="2023-07-03T07:30:43.677Z" agent="Mozilla/5.0 (Windows NT 10.0; Win64; x64) AppleWebKit/537.36 (KHTML, like Gecko) Chrome/114.0.0.0 Safari/537.36" etag="EcqJhmOuzZoYYqqlc_iB" version="21.3.7" type="github">
  <diagram name="Seite-1" id="D9uvrkJdefpWpD03cj6_">
    <mxGraphModel dx="2074" dy="1124" grid="1" gridSize="10" guides="1" tooltips="1" connect="1" arrows="1" fold="1" page="1" pageScale="1" pageWidth="827" pageHeight="1169" math="0" shadow="0">
      <root>
        <mxCell id="0" />
        <mxCell id="1" parent="0" />
        <mxCell id="7bV-AOYPMXluUyEzFtoI-24" value="" style="rounded=0;whiteSpace=wrap;html=1;fillColor=none;strokeWidth=2;" parent="1" vertex="1">
          <mxGeometry x="110" y="210" width="610" height="390" as="geometry" />
        </mxCell>
        <mxCell id="7bV-AOYPMXluUyEzFtoI-13" style="edgeStyle=orthogonalEdgeStyle;rounded=0;orthogonalLoop=1;jettySize=auto;html=1;exitX=0.995;exitY=0.63;exitDx=0;exitDy=0;exitPerimeter=0;entryX=0.005;entryY=0.63;entryDx=0;entryDy=0;entryPerimeter=0;" parent="1" source="7bV-AOYPMXluUyEzFtoI-5" target="7bV-AOYPMXluUyEzFtoI-11" edge="1">
          <mxGeometry relative="1" as="geometry" />
        </mxCell>
        <mxCell id="7bV-AOYPMXluUyEzFtoI-5" value="Preprocessing" style="sketch=0;html=1;dashed=0;whitespace=wrap;fillColor=#2875E2;strokeColor=#ffffff;points=[[0.005,0.63,0],[0.1,0.2,0],[0.9,0.2,0],[0.5,0,0],[0.995,0.63,0],[0.72,0.99,0],[0.5,1,0],[0.28,0.99,0]];verticalLabelPosition=bottom;align=center;verticalAlign=top;shape=mxgraph.kubernetes.icon;prIcon=pod;fontStyle=1" parent="1" vertex="1">
          <mxGeometry x="430" y="310" width="50" height="48" as="geometry" />
        </mxCell>
        <mxCell id="7bV-AOYPMXluUyEzFtoI-11" value="Training" style="sketch=0;html=1;dashed=0;whitespace=wrap;fillColor=#2875E2;strokeColor=#ffffff;points=[[0.005,0.63,0],[0.1,0.2,0],[0.9,0.2,0],[0.5,0,0],[0.995,0.63,0],[0.72,0.99,0],[0.5,1,0],[0.28,0.99,0]];verticalLabelPosition=bottom;align=center;verticalAlign=top;shape=mxgraph.kubernetes.icon;prIcon=pod;fontStyle=1" parent="1" vertex="1">
          <mxGeometry x="570" y="310" width="50" height="48" as="geometry" />
        </mxCell>
        <mxCell id="7bV-AOYPMXluUyEzFtoI-18" value="Mounted" style="edgeStyle=orthogonalEdgeStyle;rounded=0;orthogonalLoop=1;jettySize=auto;html=1;exitX=0.5;exitY=0;exitDx=0;exitDy=0;exitPerimeter=0;" parent="1" source="7bV-AOYPMXluUyEzFtoI-14" edge="1">
          <mxGeometry x="-0.6787" y="-1" relative="1" as="geometry">
            <mxPoint x="240" y="390" as="targetPoint" />
            <Array as="points">
              <mxPoint x="389" y="420" />
              <mxPoint x="240" y="420" />
            </Array>
            <mxPoint as="offset" />
          </mxGeometry>
        </mxCell>
        <mxCell id="7bV-AOYPMXluUyEzFtoI-14" value="Data Volume" style="sketch=0;html=1;dashed=0;whitespace=wrap;fillColor=#2875E2;strokeColor=#ffffff;points=[[0.005,0.63,0],[0.1,0.2,0],[0.9,0.2,0],[0.5,0,0],[0.995,0.63,0],[0.72,0.99,0],[0.5,1,0],[0.28,0.99,0]];verticalLabelPosition=bottom;align=center;verticalAlign=top;shape=mxgraph.kubernetes.icon;prIcon=vol;fontStyle=1" parent="1" vertex="1">
          <mxGeometry x="364" y="490" width="50" height="48" as="geometry" />
        </mxCell>
        <mxCell id="7bV-AOYPMXluUyEzFtoI-17" value="Mounted" style="edgeStyle=orthogonalEdgeStyle;rounded=0;orthogonalLoop=1;jettySize=auto;html=1;exitX=0.5;exitY=0;exitDx=0;exitDy=0;exitPerimeter=0;" parent="1" source="7bV-AOYPMXluUyEzFtoI-15" edge="1">
          <mxGeometry relative="1" as="geometry">
            <mxPoint x="215" y="390" as="targetPoint" />
          </mxGeometry>
        </mxCell>
        <mxCell id="7bV-AOYPMXluUyEzFtoI-15" value="Home Volume" style="sketch=0;html=1;dashed=0;whitespace=wrap;fillColor=#2875E2;strokeColor=#ffffff;points=[[0.005,0.63,0],[0.1,0.2,0],[0.9,0.2,0],[0.5,0,0],[0.995,0.63,0],[0.72,0.99,0],[0.5,1,0],[0.28,0.99,0]];verticalLabelPosition=bottom;align=center;verticalAlign=top;shape=mxgraph.kubernetes.icon;prIcon=pv;fontStyle=1" parent="1" vertex="1">
          <mxGeometry x="190" y="490" width="50" height="48" as="geometry" />
        </mxCell>
        <mxCell id="7bV-AOYPMXluUyEzFtoI-16" value="Notebook Server" style="sketch=0;html=1;dashed=0;whitespace=wrap;fillColor=#2875E2;strokeColor=#ffffff;points=[[0.005,0.63,0],[0.1,0.2,0],[0.9,0.2,0],[0.5,0,0],[0.995,0.63,0],[0.72,0.99,0],[0.5,1,0],[0.28,0.99,0]];verticalLabelPosition=bottom;align=center;verticalAlign=top;shape=mxgraph.kubernetes.icon;prIcon=pod;fontStyle=1" parent="1" vertex="1">
          <mxGeometry x="195" y="313" width="50" height="48" as="geometry" />
        </mxCell>
        <mxCell id="7bV-AOYPMXluUyEzFtoI-20" value="" style="endArrow=classic;html=1;rounded=0;edgeStyle=orthogonalEdgeStyle;" parent="1" edge="1">
          <mxGeometry width="50" height="50" relative="1" as="geometry">
            <mxPoint x="387" y="420" as="sourcePoint" />
            <mxPoint x="457" y="390" as="targetPoint" />
          </mxGeometry>
        </mxCell>
        <mxCell id="7bV-AOYPMXluUyEzFtoI-23" value="" style="group;fontStyle=1" parent="1" vertex="1" connectable="0">
          <mxGeometry x="394" y="288" width="246" height="102" as="geometry" />
        </mxCell>
        <mxCell id="7bV-AOYPMXluUyEzFtoI-21" value="" style="rounded=1;whiteSpace=wrap;html=1;fillColor=none;" parent="7bV-AOYPMXluUyEzFtoI-23" vertex="1">
          <mxGeometry x="1" y="2" width="245" height="100" as="geometry" />
        </mxCell>
        <mxCell id="7bV-AOYPMXluUyEzFtoI-22" value="Pipeline" style="text;html=1;strokeColor=none;fillColor=none;align=center;verticalAlign=middle;whiteSpace=wrap;rounded=0;fontStyle=1" parent="7bV-AOYPMXluUyEzFtoI-23" vertex="1">
          <mxGeometry width="60" height="30" as="geometry" />
        </mxCell>
        <mxCell id="7bV-AOYPMXluUyEzFtoI-25" value="Kubernetes Cluster" style="text;html=1;strokeColor=none;fillColor=none;align=center;verticalAlign=middle;whiteSpace=wrap;rounded=0;fontStyle=1" parent="1" vertex="1">
          <mxGeometry x="113" y="208" width="120" height="30" as="geometry" />
        </mxCell>
        <mxCell id="rfApeiTz5Wso93bQ_ibE-1" value="" style="rounded=1;whiteSpace=wrap;html=1;fillColor=none;" parent="1" vertex="1">
          <mxGeometry x="130" y="250" width="550" height="330" as="geometry" />
        </mxCell>
        <mxCell id="rfApeiTz5Wso93bQ_ibE-3" value="&lt;b&gt;Namespace&lt;/b&gt;" style="text;html=1;strokeColor=none;fillColor=none;align=center;verticalAlign=middle;whiteSpace=wrap;rounded=0;" parent="1" vertex="1">
          <mxGeometry x="150" y="258" width="60" height="30" as="geometry" />
        </mxCell>
      </root>
    </mxGraphModel>
  </diagram>
</mxfile>
